<svg xmlns="http://www.w3.org/2000/svg" width="512" height="512" viewBox="0 0 512 512" version="1.1">
	<path d="M 308.500 109.603 C 255.237 113.432, 205.270 123.352, 189.551 133.217 C 180.099 139.149, 156.468 157.980, 144.500 169.118 C 140.520 172.822, 138.296 174.037, 133.597 175.079 C 125.899 176.784, 122 180.004, 122 184.655 C 122 186.567, 122.447 188.967, 122.993 189.988 C 124.173 192.191, 121.956 193.022, 101.637 197.997 C 82.523 202.677, 66.094 208.385, 51.283 215.492 C 32.052 224.719, 25.467 229.307, 22.576 235.489 C 15.931 249.700, 14.701 252.864, 14.215 256.990 C 13.924 259.460, 12.356 263.642, 10.730 266.284 C 4.610 276.230, 2.609 285.214, 5.071 291.685 C 5.661 293.233, 6.560 299.605, 7.069 305.845 C 7.578 312.084, 8.677 319.825, 9.512 323.046 C 10.954 328.611, 10.929 329.068, 9.019 332.201 C 6.783 335.867, 6.498 339.654, 8.040 345.205 C 9.387 350.056, 13.200 353, 18.135 353 C 21.146 353, 22.002 353.387, 22.009 354.750 C 22.025 357.725, 27.556 366.336, 32.202 370.619 C 38.705 376.613, 44.692 379.766, 54.081 382.140 C 64.385 384.746, 75.553 384.324, 84.344 380.997 C 90.883 378.523, 99.468 372.023, 102.500 367.250 C 103.600 365.519, 104.950 363.944, 105.500 363.751 C 106.050 363.558, 113.756 363.872, 122.625 364.450 L 138.750 365.500 143.316 369.716 C 145.827 372.035, 148.921 374.186, 150.191 374.496 C 151.461 374.806, 166.450 374.934, 183.500 374.780 L 214.500 374.500 215.457 371.250 C 215.983 369.463, 216.658 368.010, 216.957 368.023 C 217.256 368.036, 219.300 371.284, 221.500 375.241 C 231.940 394.021, 248.515 403.902, 272.500 405.647 C 288.598 406.817, 301.863 401.972, 312.274 391.120 C 321.272 381.739, 324.712 375.090, 330.630 355.640 C 331.491 352.809, 331.709 352.737, 352.500 348.500 C 369.128 345.112, 433.487 329.823, 441.156 327.440 C 442.439 327.041, 442.961 327.809, 443.476 330.857 C 444.508 336.966, 449.317 346.193, 453.283 349.676 C 457.396 353.287, 464.916 355.247, 474.659 355.249 C 485.855 355.251, 493.412 348.821, 497.945 335.437 C 501.198 325.835, 501.949 307.363, 499.530 296.488 C 497.852 288.949, 497.858 288.780, 499.863 286.646 C 500.984 285.452, 502.895 282.231, 504.108 279.489 C 506.036 275.130, 506.316 272.740, 506.332 260.501 C 506.349 247.415, 506.170 246.081, 503.593 240.085 C 502.076 236.557, 500.396 230.932, 499.859 227.585 C 497.711 214.202, 494.049 204.012, 487.297 192.635 C 474.421 170.937, 469.638 163.383, 462.361 153.245 C 458.313 147.605, 455 142.123, 455 141.063 C 455 138.652, 451.901 136.448, 440.500 130.750 C 423.117 122.062, 403.919 116.008, 380.500 111.829 C 371.706 110.260, 363.885 109.804, 341.500 109.555 C 326.100 109.384, 311.250 109.405, 308.500 109.603 M 334.572 115.750 C 335.069 116.162, 335.813 116.950, 336.223 117.500 C 336.649 118.071, 336.976 117.749, 336.985 116.750 C 336.993 115.777, 336.260 115, 335.333 115 C 334.417 115, 334.074 115.338, 334.572 115.750 M 350.401 116.905 C 348.147 117.929, 345.316 120.152, 344.110 121.846 C 341.227 125.894, 336.713 136.946, 333.066 148.883 C 326.581 170.108, 325.740 175.543, 328.070 181.169 L 329.340 184.235 330.669 179.039 C 333.831 166.686, 348.624 134.776, 354.059 128.585 C 359.074 122.874, 365.896 120.022, 374.574 120.010 C 385.242 119.995, 398.983 122.678, 414 127.709 C 428.244 132.481, 434.825 135.435, 441.680 140.135 C 446.595 143.504, 448 143.708, 448 141.051 C 448 138.377, 431.076 129.971, 417.665 125.983 C 412.074 124.320, 404.575 122.083, 401 121.012 C 391.643 118.207, 370.742 114.997, 362 115.022 C 356.859 115.037, 353.210 115.630, 350.401 116.905 M 366.764 124.996 C 359.829 127.084, 354.430 132.359, 349.615 141.750 C 347.214 146.432, 348.368 145.751, 351.309 140.750 C 354.651 135.067, 360.705 129.087, 365 127.227 C 366.925 126.393, 372.325 125.392, 377 125.003 L 385.500 124.295 377.500 124.233 C 373.100 124.200, 368.269 124.543, 366.764 124.996 M 387.269 125.693 C 388.242 125.947, 389.592 125.930, 390.269 125.656 C 390.946 125.382, 390.150 125.175, 388.500 125.195 C 386.850 125.215, 386.296 125.439, 387.269 125.693 M 392.813 126.683 C 393.534 126.972, 394.397 126.936, 394.729 126.604 C 395.061 126.272, 394.471 126.036, 393.417 126.079 C 392.252 126.127, 392.015 126.364, 392.813 126.683 M 399 128.154 C 402.209 129.022, 402.823 129.846, 406.393 138.074 C 408.534 143.010, 410.435 146.898, 410.618 146.716 C 410.800 146.533, 409.300 142.429, 407.284 137.595 C 403.614 128.793, 401.720 126.825, 397.185 127.103 C 396.258 127.160, 397.075 127.633, 399 128.154 M 411 131.129 C 411 132.232, 412.166 132.643, 417.374 133.372 C 422.283 134.059, 421.650 133.401, 415.670 131.601 C 413.101 130.828, 411 130.616, 411 131.129 M 424 135 C 424.825 135.533, 425.950 135.969, 426.500 135.969 C 427.050 135.969, 426.825 135.533, 426 135 C 425.175 134.467, 424.050 134.031, 423.500 134.031 C 422.950 134.031, 423.175 134.467, 424 135 M 449.604 144.832 C 449.321 145.290, 451.293 148.688, 453.987 152.383 C 459.758 160.299, 465.572 170.447, 466.535 174.285 C 466.998 176.126, 468.400 177.540, 470.860 178.645 C 472.862 179.544, 475.548 181.454, 476.828 182.890 L 479.156 185.500 477.153 181.500 C 473.928 175.059, 452.191 144.162, 450.809 144.054 C 450.429 144.024, 449.887 144.375, 449.604 144.832 M 345.452 149.093 C 344.572 150.794, 344.030 152.363, 344.247 152.580 C 344.464 152.797, 345.390 151.406, 346.305 149.487 C 348.361 145.175, 347.649 144.845, 345.452 149.093 M 447 148.500 C 448.292 149.875, 449.574 151, 449.849 151 C 450.124 151, 449.292 149.875, 448 148.500 C 446.708 147.125, 445.426 146, 445.151 146 C 444.876 146, 445.708 147.125, 447 148.500 M 205.145 152.070 C 199.021 154.523, 159 185.048, 159 187.266 C 159 187.848, 161.490 188, 165.250 187.648 C 168.688 187.327, 177.688 186.770, 185.250 186.411 C 192.813 186.052, 199 185.363, 199 184.879 C 199 184.396, 200.988 184, 203.417 184 C 205.846 184, 207.983 183.662, 208.167 183.250 C 208.482 182.540, 214.510 182.718, 252.378 184.552 L 268.257 185.322 266.413 182.507 C 264.040 178.886, 264.062 170.397, 266.455 166.346 C 270.738 159.095, 280.236 156.241, 288.266 159.793 C 294.086 162.368, 296.373 165.904, 297 173.300 L 297.500 179.196 300.250 177.026 C 301.911 175.715, 303 173.885, 303 172.405 C 303 168.872, 295.822 161.551, 289.142 158.270 C 284.134 155.811, 282.432 155.507, 274 155.566 C 267.310 155.613, 262.876 156.204, 259.008 157.566 C 254.177 159.268, 253.121 160.161, 250.224 165 C 248.413 168.025, 246.100 173.200, 245.083 176.500 C 243.792 180.694, 242.748 182.475, 241.618 182.417 C 240.728 182.371, 237.525 182.258, 234.500 182.167 C 230.379 182.042, 229 181.628, 229 180.516 C 229 179.700, 231.864 173.393, 235.364 166.501 C 242.682 152.092, 243.418 153.646, 228.500 152.006 C 217.454 150.791, 208.274 150.817, 205.145 152.070 M 412.079 152.583 C 412.127 153.748, 412.364 153.985, 412.683 153.188 C 412.972 152.466, 412.936 151.603, 412.604 151.271 C 412.272 150.939, 412.036 151.529, 412.079 152.583 M 452.437 155.329 C 453.977 157.348, 455.440 159, 455.687 159 C 456.381 159, 452.052 153.150, 450.772 152.359 C 450.148 151.973, 450.897 153.310, 452.437 155.329 M 342.459 155.067 C 342.096 155.653, 342.014 156.348, 342.276 156.610 C 342.538 156.872, 343.019 156.392, 343.345 155.543 C 344.021 153.781, 343.445 153.471, 342.459 155.067 M 423.004 154.750 C 423.009 155.827, 430.826 181.159, 431.298 181.632 C 431.515 181.849, 436.916 181.728, 443.300 181.363 L 454.906 180.701 451.070 176.342 C 448.960 173.945, 444.620 168.136, 441.425 163.432 C 436.179 155.709, 434 153.040, 434 154.339 C 434 155.072, 441.899 168.098, 445.232 172.861 C 447.651 176.318, 447.874 177.003, 446.306 176.164 C 442.766 174.269, 437.023 167.085, 433.762 160.471 C 430.675 154.211, 430.447 154, 426.785 154 C 424.703 154, 423.002 154.338, 423.004 154.750 M 394.500 156.887 L 384.500 158.500 384.294 162.127 L 384.088 165.754 389.136 166.424 C 395.928 167.325, 399.002 170.375, 398.994 176.205 C 398.990 178.567, 398.320 181.781, 397.504 183.346 L 396.019 186.191 406.760 185.477 C 412.667 185.084, 417.546 184.703, 417.602 184.631 C 417.805 184.370, 411.124 160.431, 410.100 157.750 C 408.886 154.571, 408.865 154.570, 394.500 156.887 M 366.115 172.045 C 358.420 172.851, 356.454 174.111, 358.098 177.183 C 359.122 179.097, 358.337 179.092, 386.736 177.374 C 395.241 176.860, 395.895 176.673, 395.007 175.013 C 392.939 171.150, 383.712 170.202, 366.115 172.045 M 462.096 178.750 L 460.727 185 453.514 185 C 442.808 185, 430.783 186.183, 431.742 187.142 C 432.204 187.604, 438.189 187.547, 445.041 187.014 C 451.894 186.481, 458.454 186.035, 459.620 186.023 C 461.262 186.005, 462.015 185.018, 462.959 181.647 C 463.629 179.253, 464.017 176.215, 463.822 174.897 C 463.587 173.320, 462.997 174.637, 462.096 178.750 M 419.079 177.583 C 419.127 178.748, 419.364 178.985, 419.683 178.188 C 419.972 177.466, 419.936 176.603, 419.604 176.271 C 419.272 175.939, 419.036 176.529, 419.079 177.583 M 322.032 182.559 C 322.014 183.141, 322.661 184.491, 323.468 185.559 C 324.276 186.626, 324.951 187.024, 324.968 186.441 C 324.986 185.859, 324.339 184.509, 323.532 183.441 C 322.724 182.374, 322.049 181.976, 322.032 182.559 M 480.086 188.254 C 480.767 189.769, 481.032 191.302, 480.673 191.660 C 479.820 192.513, 451.691 197.925, 446.426 198.249 L 442.351 198.500 444.426 202.687 C 445.769 205.398, 447.029 206.728, 448 206.459 C 451.055 205.615, 464.808 203.913, 475.859 203.012 C 482.124 202.502, 487.472 201.862, 487.743 201.590 C 488.015 201.319, 486.567 198.037, 484.527 194.298 C 480.642 187.179, 477.961 183.530, 480.086 188.254 M 400 187.922 C 395.325 188.240, 390.600 189.049, 389.500 189.720 C 387.585 190.887, 387.607 190.939, 390 190.941 C 395.395 190.946, 428.258 188.075, 428.780 187.554 C 429.444 186.890, 411.888 187.115, 400 187.922 M 404.500 191.535 C 391.300 192.800, 376.225 194.315, 371 194.901 C 365.775 195.486, 360.686 195.973, 359.691 195.983 C 358.696 195.992, 358.099 196.350, 358.363 196.779 C 359.469 198.568, 431.319 192.457, 430.709 190.626 C 430.525 190.075, 429.953 189.537, 429.438 189.429 C 428.922 189.322, 417.700 190.269, 404.500 191.535 M 315 191.448 C 309.407 192.222, 307.355 192.814, 309 193.176 C 310.927 193.601, 310.599 193.759, 307.573 193.864 C 304.560 193.968, 303.047 194.691, 301.073 196.969 C 298.692 199.717, 297.047 200.239, 279 203.972 C 268.275 206.191, 255.675 209.066, 251 210.362 L 242.500 212.718 247.304 213.749 C 251.323 214.612, 253.856 214.385, 262.804 212.358 C 268.687 211.025, 284.525 207.641, 298 204.838 C 311.475 202.035, 324.637 199.290, 327.250 198.738 C 332.263 197.679, 332.775 196.796, 330.839 192.547 C 329.513 189.636, 328.559 189.570, 315 191.448 M 187.250 191.735 C 189.863 191.941, 194.137 191.941, 196.750 191.735 C 199.363 191.529, 197.225 191.360, 192 191.360 C 186.775 191.360, 184.637 191.529, 187.250 191.735 M 325.088 191.925 C 323.888 192.684, 323.915 193.058, 325.266 194.409 C 327.570 196.713, 329 196.365, 329 193.500 C 329 190.929, 327.570 190.353, 325.088 191.925 M 236.776 192.733 C 239.128 192.945, 242.728 192.942, 244.776 192.727 C 246.824 192.512, 244.900 192.339, 240.500 192.343 C 236.100 192.346, 234.424 192.522, 236.776 192.733 M 206.797 193.745 C 211.361 193.930, 218.561 193.929, 222.797 193.742 C 227.034 193.555, 223.300 193.404, 214.500 193.405 C 205.700 193.406, 202.234 193.559, 206.797 193.745 M 434.927 197.684 C 436.385 200.652, 436.282 204.970, 434.750 205.132 C 434.063 205.204, 435.070 205.542, 436.989 205.882 C 439.544 206.334, 440.854 207.285, 441.880 209.430 C 443.193 212.174, 443.122 212.492, 440.770 214.430 C 439.389 215.569, 436.513 217.536, 434.379 218.802 L 430.500 221.104 434.500 220.563 C 436.700 220.265, 440.413 220.017, 442.750 220.011 C 446.303 220.002, 447 219.678, 447 218.038 C 447 213.596, 442.548 204.410, 438.272 200.028 C 435.841 197.537, 434.336 196.483, 434.927 197.684 M 253.500 198.485 C 249.650 199.203, 235.700 202.576, 222.500 205.981 C 198.196 212.250, 178.890 219.254, 175.459 223.046 C 172.907 225.865, 174.841 225.527, 184.772 221.416 C 194.780 217.273, 206.742 213.416, 212.500 212.476 C 219.901 211.268, 238.495 206.736, 239 206.017 C 239.506 205.296, 248.700 203.004, 259.270 200.964 C 262.444 200.351, 266.413 200.152, 268.092 200.520 C 271.109 201.183, 271.123 201.167, 269.349 199.095 C 267.262 196.657, 263.983 196.531, 253.500 198.485 M 351.762 197.707 C 353.006 197.946, 354.806 197.937, 355.762 197.687 C 356.718 197.437, 355.700 197.241, 353.500 197.252 C 351.300 197.263, 350.518 197.468, 351.762 197.707 M 281.813 198.683 C 282.534 198.972, 283.397 198.936, 283.729 198.604 C 284.061 198.272, 283.471 198.036, 282.417 198.079 C 281.252 198.127, 281.015 198.364, 281.813 198.683 M 344.269 198.693 C 345.242 198.947, 346.592 198.930, 347.269 198.656 C 347.946 198.382, 347.150 198.175, 345.500 198.195 C 343.850 198.215, 343.296 198.439, 344.269 198.693 M 274.250 199.689 C 275.212 199.941, 276.788 199.941, 277.750 199.689 C 278.712 199.438, 277.925 199.232, 276 199.232 C 274.075 199.232, 273.288 199.438, 274.250 199.689 M 336.813 199.683 C 337.534 199.972, 338.397 199.936, 338.729 199.604 C 339.061 199.272, 338.471 199.036, 337.417 199.079 C 336.252 199.127, 336.015 199.364, 336.813 199.683 M 325.500 201.661 C 322.750 202.476, 312.175 204.875, 302 206.993 C 281.731 211.213, 280.077 212.070, 298 209.068 C 314.277 206.341, 334 201.833, 334 200.840 C 334 199.671, 331.353 199.926, 325.500 201.661 M 83.628 205.572 C 76.541 207.983, 73.360 209.795, 78.295 208.610 C 82.396 207.626, 93.755 203.131, 92 203.187 C 91.175 203.214, 87.408 204.287, 83.628 205.572 M 424 204 C 423.175 204.533, 422.950 204.969, 423.500 204.969 C 424.050 204.969, 425.175 204.533, 426 204 C 426.825 203.467, 427.050 203.031, 426.500 203.031 C 425.950 203.031, 424.825 203.467, 424 204 M 479.862 204.472 C 479.564 204.769, 472.478 206.080, 464.114 207.386 C 455.750 208.691, 448.669 209.997, 448.379 210.288 C 448.088 210.579, 448.160 212.883, 448.539 215.408 C 449.211 219.890, 449.314 220.001, 452.864 220.024 C 458.659 220.063, 465.312 221.945, 467.750 224.235 C 470.728 227.032, 470.622 231.136, 467.395 238 C 463.767 245.716, 462.939 248.001, 463.775 247.991 C 465.462 247.971, 474.257 232.579, 476.578 225.584 L 477.934 221.500 477.695 228.551 C 477.519 233.779, 476.946 236.267, 475.479 238.175 C 474.390 239.590, 472.322 242.267, 470.881 244.124 C 469.441 245.981, 467.946 248.834, 467.559 250.464 C 466.883 253.310, 467.076 253.218, 472.417 248.167 C 483.149 238.017, 492.693 237.154, 500.669 245.611 C 502.501 247.553, 504 248.894, 504 248.590 C 504 248.286, 502.666 245.217, 501.036 241.769 C 499.406 238.321, 496.819 232.575, 495.286 229 C 487.304 210.378, 482.150 202.183, 479.862 204.472 M 427.884 208.449 C 427.637 208.697, 425.529 209.034, 423.199 209.199 C 420.870 209.365, 419.085 209.950, 419.232 210.500 C 419.599 211.870, 428.511 211.332, 434 209.610 L 438.500 208.198 433.417 208.099 C 430.621 208.044, 428.131 208.202, 427.884 208.449 M 280.813 211.683 C 281.534 211.972, 282.397 211.936, 282.729 211.604 C 283.061 211.272, 282.471 211.036, 281.417 211.079 C 280.252 211.127, 280.015 211.364, 280.813 211.683 M 274.813 212.683 C 275.534 212.972, 276.397 212.936, 276.729 212.604 C 277.061 212.272, 276.471 212.036, 275.417 212.079 C 274.252 212.127, 274.015 212.364, 274.813 212.683 M 260.813 215.683 C 261.534 215.972, 262.397 215.936, 262.729 215.604 C 263.061 215.272, 262.471 215.036, 261.417 215.079 C 260.252 215.127, 260.015 215.364, 260.813 215.683 M 396 219.016 C 352.445 226.487, 344.799 227.868, 344.319 228.348 C 344.034 228.633, 344.107 230.671, 344.479 232.878 C 345.111 236.619, 345.320 236.829, 347.564 235.976 C 352.517 234.093, 386.053 227.748, 407.405 224.654 L 429.525 221.449 423.512 218.712 C 420.206 217.207, 416.375 216.023, 415 216.080 C 413.625 216.138, 405.075 217.459, 396 219.016 M 45.500 221.149 C 38.072 224.975, 27.213 232.003, 26.712 233.308 C 25.856 235.539, 28.738 241.011, 30.702 240.884 C 32.372 240.776, 32.375 240.735, 30.751 240.311 C 28.484 239.718, 27.405 235.422, 29.031 233.463 C 29.721 232.632, 30.527 232.194, 30.823 232.490 C 31.119 232.786, 32.630 231.813, 34.181 230.327 C 35.731 228.841, 37 227.947, 37 228.339 C 37 228.731, 38.416 228.319, 40.146 227.425 C 43.145 225.874, 43.258 225.884, 42.576 227.649 C 42.182 228.667, 41.641 230.850, 41.373 232.500 C 41.105 234.150, 41.750 233.113, 42.807 230.196 C 43.864 227.279, 45.999 223.566, 47.552 221.946 C 50.868 218.485, 50.756 218.442, 45.500 221.149 M 230.500 222.682 C 220.050 224.558, 206.550 227.266, 200.500 228.699 C 182.284 233.014, 154.220 243.217, 152.380 246.194 C 152.060 246.712, 153.981 246.032, 156.649 244.681 C 169.541 238.158, 186.380 233.488, 215 228.500 C 226.193 226.549, 238.834 224.064, 243.092 222.977 C 247.350 221.889, 251.883 220.993, 253.167 220.985 C 255.040 220.972, 255.204 220.778, 254 220 C 252.080 218.759, 252.814 218.676, 230.500 222.682 M 343.813 221.683 C 344.534 221.972, 345.397 221.936, 345.729 221.604 C 346.061 221.272, 345.471 221.036, 344.417 221.079 C 343.252 221.127, 343.015 221.364, 343.813 221.683 M 236.254 228.555 C 232.819 229.883, 228.125 232.158, 225.824 233.611 C 223.522 235.064, 220.033 236.981, 218.070 237.871 L 214.500 239.490 221.259 239.995 L 228.018 240.500 221.316 246.500 C 210.890 255.834, 204.315 257.501, 198.634 252.250 L 195.659 249.500 197.843 252.674 C 199.868 255.616, 199.899 255.888, 198.264 256.392 C 195.157 257.349, 208.354 255.972, 212.225 254.935 C 214.607 254.296, 218.659 251.424, 223.465 246.968 C 227.598 243.136, 231.842 240, 232.896 240 C 234.664 240, 239.865 233.858, 242.902 228.183 C 244.328 225.518, 244.069 225.533, 236.254 228.555 M 308.500 228 C 308.840 228.550, 309.619 229, 310.230 229 C 310.842 229, 312.075 229.563, 312.970 230.250 C 313.866 230.938, 313.538 230.488, 312.243 229.250 C 309.871 226.984, 307.352 226.142, 308.500 228 M 335 230.005 C 333.075 230.448, 328.913 231.334, 325.750 231.976 C 322.587 232.617, 320 233.569, 320 234.091 C 320 234.613, 321.059 236.718, 322.354 238.770 C 323.649 240.821, 325.029 243.512, 325.421 244.750 C 326.433 247.940, 323.405 247.735, 316.221 244.125 C 305.405 238.690, 292.892 237.554, 281.753 240.995 C 274.707 243.171, 270.521 245.709, 262.372 252.744 C 258.242 256.309, 257.289 257.644, 258.141 258.670 C 259.028 259.739, 259.886 259.430, 262.571 257.072 C 264.402 255.464, 268.960 252.350, 272.700 250.152 C 289.854 240.071, 304.219 240.682, 315.870 251.989 L 319.856 255.858 323.639 253.929 C 325.720 252.868, 328.018 252, 328.746 252 C 329.752 252, 329.913 250.825, 329.419 247.097 C 328.679 241.525, 329.458 240.693, 336.518 239.511 C 343.040 238.419, 342.864 238.619, 341.711 233.578 C 341.134 231.060, 340.176 229.045, 339.582 229.100 C 338.987 229.156, 336.925 229.563, 335 230.005 M 206.814 238.781 C 208.291 240.311, 209.689 241.434, 209.921 241.277 C 210.497 240.886, 205.838 236, 204.889 236 C 204.470 236, 205.336 237.251, 206.814 238.781 M 46.536 239.060 C 39.113 240.207, 31 242.847, 31 244.116 C 31 244.707, 31.666 244.722, 32.750 244.155 C 39.400 240.675, 65.895 238.743, 89.783 239.995 C 123.868 241.783, 131.096 244.662, 140.628 260.250 C 142.949 264.045, 144.800 266, 146.072 266 C 148.889 266, 148.472 264.373, 143.448 255.750 C 139.696 249.311, 138.503 248, 136.399 248 C 134.369 248, 133.985 247.624, 134.465 246.109 C 135.208 243.769, 132.112 242.532, 120 240.326 C 109.979 238.501, 56.154 237.573, 46.536 239.060 M 22.123 243.935 C 19.607 249.784, 19.457 252.305, 21.524 254.020 C 23.394 255.572, 23.399 255.568, 25.929 249.665 C 27.818 245.258, 27.862 244.634, 26.467 241.935 C 25.632 240.321, 24.791 239, 24.597 239 C 24.404 239, 23.291 241.221, 22.123 243.935 M 199.950 242.093 C 198.448 244.899, 199.528 248.715, 202.050 249.516 C 204.772 250.380, 207 248.381, 207 245.078 C 207 240.143, 202.103 238.070, 199.950 242.093 M 210.079 244.583 C 210.127 245.748, 210.364 245.985, 210.683 245.188 C 210.972 244.466, 210.936 243.603, 210.604 243.271 C 210.272 242.939, 210.036 243.529, 210.079 244.583 M 178 245.472 C 175.525 246.208, 172.467 247.135, 171.204 247.533 C 169.544 248.057, 168.536 247.748, 167.564 246.418 C 166.358 244.769, 165.924 244.722, 163.360 245.963 C 161.787 246.723, 159.876 247.234, 159.114 247.098 C 158.246 246.943, 157.945 247.415, 158.309 248.363 C 158.698 249.378, 158.193 249.978, 156.773 250.188 C 155.609 250.359, 154.467 251.075, 154.236 251.778 C 153.909 252.770, 155.575 252.949, 161.657 252.577 C 165.971 252.313, 170.850 251.680, 172.500 251.169 C 176.894 249.811, 187 245.201, 187 244.555 C 187 243.627, 182.755 244.059, 178 245.472 M 71.686 250.102 C 76.394 251.464, 77.655 256.447, 74.255 260.250 C 71.987 262.786, 68.463 262.405, 66.073 259.365 C 63.467 256.053, 63.480 255.183, 66.174 252.314 C 67.370 251.042, 67.899 250, 67.349 250 C 66.799 250, 65.276 251.142, 63.965 252.537 C 61.690 254.959, 61.655 255.197, 63.204 257.787 C 64.097 259.279, 66.103 261.256, 67.663 262.179 C 70.139 263.645, 70.905 263.687, 73.685 262.505 C 75.437 261.760, 77.571 259.797, 78.427 258.142 C 79.914 255.266, 79.869 254.997, 77.402 252.066 C 75.473 249.773, 74.025 249.023, 71.661 249.090 L 68.500 249.180 71.686 250.102 M 120.813 249.683 C 121.534 249.972, 122.397 249.936, 122.729 249.604 C 123.061 249.272, 122.471 249.036, 121.417 249.079 C 120.252 249.127, 120.015 249.364, 120.813 249.683 M 113.762 250.707 C 115.006 250.946, 116.806 250.937, 117.762 250.687 C 118.718 250.437, 117.700 250.241, 115.500 250.252 C 113.300 250.263, 112.518 250.468, 113.762 250.707 M 97 251.973 C 89.122 252.991, 83.732 254.066, 84.194 254.527 C 84.413 254.746, 90.646 254.090, 98.046 253.069 C 105.446 252.047, 109.475 251.223, 107 251.237 C 104.525 251.251, 100.025 251.582, 97 251.973 M 41.250 252.716 C 42.763 252.945, 45.237 252.945, 46.750 252.716 C 48.263 252.487, 47.025 252.300, 44 252.300 C 40.975 252.300, 39.737 252.487, 41.250 252.716 M 182.959 255.924 C 183.914 257.707, 184.947 257.982, 190.285 257.875 L 196.500 257.750 191.429 257.006 C 188.640 256.597, 185.344 255.719, 184.103 255.055 C 182.003 253.931, 181.925 253.991, 182.959 255.924 M 100 256.528 C 95.325 257.241, 90.862 257.864, 90.083 257.913 C 89.304 257.961, 88.905 258.239, 89.197 258.530 C 89.489 258.822, 92.863 258.574, 96.695 257.979 C 100.527 257.385, 109.026 256.536, 115.581 256.094 L 127.500 255.289 118 255.260 C 112.775 255.244, 104.675 255.815, 100 256.528 M 160.250 255.706 C 157.828 256.172, 157.317 257.460, 159.113 258.570 C 160.319 259.315, 178.146 259.187, 178.905 258.428 C 180.055 257.278, 176.973 256.212, 171 255.694 C 166.964 255.344, 165.258 255.458, 166.500 255.995 C 168.170 256.717, 167.954 256.871, 165.191 256.930 C 163.225 256.971, 162.133 256.594, 162.500 256 C 162.840 255.450, 162.979 255.061, 162.809 255.136 C 162.639 255.211, 161.488 255.467, 160.250 255.706 M 41.269 258.693 C 42.242 258.947, 43.592 258.930, 44.269 258.656 C 44.946 258.382, 44.150 258.175, 42.500 258.195 C 40.850 258.215, 40.296 258.439, 41.269 258.693 M 448.813 258.683 C 449.534 258.972, 450.397 258.936, 450.729 258.604 C 451.061 258.272, 450.471 258.036, 449.417 258.079 C 448.252 258.127, 448.015 258.364, 448.813 258.683 M 251.894 263.276 C 248.018 268.592, 244.530 275.396, 243.194 280.250 C 242.626 282.313, 242.317 284, 242.508 284 C 242.699 284, 244.532 281.188, 246.581 277.750 C 248.631 274.313, 252.038 269.208, 254.154 266.408 C 258.500 260.654, 258.575 260.435, 256.487 259.633 C 255.486 259.249, 253.933 260.481, 251.894 263.276 M 437.500 260.624 C 434.200 261.426, 417.930 264.963, 401.344 268.486 C 368.732 275.411, 360 277.642, 360 279.046 C 360 279.568, 360.951 279.592, 362.250 279.103 C 364.947 278.088, 398.017 270.440, 421 265.517 C 439.121 261.636, 448.595 259.182, 445.500 259.173 C 444.400 259.169, 440.800 259.822, 437.500 260.624 M 14 264.051 C 14 264.629, 15.561 265.754, 17.468 266.551 C 21.607 268.280, 22 268.315, 22 266.949 C 22 266.371, 20.439 265.246, 18.532 264.449 C 14.393 262.720, 14 262.685, 14 264.051 M 120.750 265.662 C 121.438 265.940, 122.563 265.940, 123.250 265.662 C 123.938 265.385, 123.375 265.158, 122 265.158 C 120.625 265.158, 120.063 265.385, 120.750 265.662 M 126.344 270.533 C 125.698 271.912, 125.601 273, 126.125 273 C 127.237 273, 128.334 270.488, 127.844 269.066 C 127.655 268.516, 126.980 269.176, 126.344 270.533 M 154 268.861 C 154 269.335, 155.125 269.508, 156.500 269.245 C 157.875 268.982, 159 268.594, 159 268.383 C 159 268.173, 157.875 268, 156.500 268 C 155.125 268, 154 268.388, 154 268.861 M 143.254 270.971 C 140.918 272.032, 136.920 274.335, 134.368 276.091 C 127.396 280.888, 120.306 281.392, 75 280.317 C 32.955 279.318, 33.575 279.413, 27.563 273.089 C 24.220 269.573, 23 269.222, 23 271.777 C 23 274.020, 28.147 279.725, 31.227 280.896 C 34.389 282.098, 103.307 284.412, 116.739 283.768 C 129.133 283.173, 133.127 281.819, 139.792 275.952 C 142.347 273.703, 145.689 271.612, 147.219 271.306 C 148.749 271, 150 270.356, 150 269.875 C 150 268.522, 147.895 268.864, 143.254 270.971 M 184.500 269.698 C 182.300 269.897, 175.996 270.934, 170.490 272.003 C 164.985 273.072, 158.389 274.071, 155.833 274.223 C 153.276 274.375, 151.362 274.681, 151.579 274.903 C 151.796 275.125, 150.527 276.374, 148.758 277.678 C 146.030 279.691, 145.461 279.815, 144.998 278.494 C 144.568 277.270, 143.722 277.691, 141.028 280.472 C 133.779 287.950, 121.349 289.893, 80.500 289.933 C 43.581 289.969, 32.957 288.291, 24.807 281.135 L 21.320 278.074 20.242 282.785 C 19.649 285.377, 19.290 287.623, 19.445 287.778 C 20.084 288.418, 37.701 289.996, 55 290.964 C 80.178 292.372, 121.487 292.213, 131.930 290.668 C 139.688 289.519, 140.431 289.207, 141.248 286.756 C 142.297 283.610, 142.160 283.659, 157.384 280.959 C 163.920 279.800, 172.695 277.596, 176.884 276.063 C 181.073 274.530, 187.988 272.507, 192.250 271.569 C 196.512 270.631, 200 269.669, 200 269.432 C 200 268.962, 190.910 269.118, 184.500 269.698 M 482.177 282.265 C 480.899 282.944, 478.886 285.051, 477.704 286.947 C 476.522 288.842, 476.108 290.051, 476.784 289.633 C 477.461 289.215, 478.670 287.604, 479.472 286.054 C 482.142 280.890, 487.853 281.243, 492.803 286.878 C 494.714 289.054, 494.928 289.131, 494.059 287.328 C 492.733 284.575, 488.229 280.995, 486.115 281.015 C 485.227 281.023, 483.455 281.585, 482.177 282.265 M 494.654 297.460 C 494.346 298.263, 492.205 300.288, 489.897 301.960 C 485.333 305.266, 485.395 305.881, 490.050 303.474 C 491.672 302.635, 493 302.358, 493 302.858 C 493 303.358, 493.900 304.002, 495 304.290 C 496.591 304.706, 497 304.320, 497 302.406 C 497 301.083, 496.592 300, 496.094 300 C 495.595 300, 495.423 299.100, 495.710 298 C 496.312 295.698, 495.491 295.278, 494.654 297.460 M 278.703 301.442 C 268.501 305.081, 257.589 317.086, 254.564 328 C 254.182 329.375, 255.250 327.849, 256.935 324.609 C 267.469 304.361, 283.127 296.276, 297.721 303.548 C 303.091 306.224, 311.875 314.773, 310.375 315.864 C 309.894 316.214, 308.825 317.366, 308 318.425 C 306.539 320.299, 306.569 320.305, 309.117 318.647 C 311.669 316.986, 311.776 317.009, 313.452 319.567 C 314.397 321.009, 315.775 323.834, 316.515 325.845 C 317.254 327.855, 317.890 328.825, 317.929 328 C 318.065 325.064, 312.062 314.023, 307.816 309.397 C 300.052 300.941, 288.758 297.855, 278.703 301.442 M 290.872 304.750 C 289.629 306.336, 289.664 306.371, 291.250 305.128 C 292.916 303.821, 293.445 303, 292.622 303 C 292.415 303, 291.627 303.788, 290.872 304.750 M 472 306.201 C 472 307.626, 472.462 308.037, 473.582 307.607 C 474.452 307.273, 475.603 307, 476.141 307 C 477.771 307, 476.169 305.277, 474.016 304.714 C 472.488 304.315, 472 304.674, 472 306.201 M 489.500 305 C 489.160 305.550, 489.332 306, 489.882 306 C 490.432 306, 491.160 305.550, 491.500 305 C 491.840 304.450, 491.668 304, 491.118 304 C 490.568 304, 489.840 304.450, 489.500 305 M 497 310.892 C 497 311.382, 495.988 312.047, 494.750 312.370 C 493.512 312.693, 491.150 314.076, 489.500 315.443 L 486.500 317.928 490.316 317.964 C 492.414 317.984, 495.002 318.466, 496.066 319.035 C 497.859 319.995, 498 319.703, 498 315.035 C 498 312.266, 497.775 310, 497.500 310 C 497.225 310, 497 310.401, 497 310.892 M 306 312.378 C 306 312.585, 306.788 313.373, 307.750 314.128 C 309.336 315.371, 309.371 315.336, 308.128 313.750 C 306.821 312.084, 306 311.555, 306 312.378 M 14.032 314.191 C 14.014 315.121, 14.480 316.179, 15.067 316.541 C 16.829 317.630, 17.076 316.482, 15.521 314.427 C 14.241 312.735, 14.060 312.706, 14.032 314.191 M 204.284 315.926 C 205.778 317.701, 207 319.869, 207 320.743 C 207 321.618, 207.286 322.048, 207.635 321.699 C 208.703 320.630, 205.853 314.992, 203.647 313.811 C 201.910 312.882, 202.015 313.229, 204.284 315.926 M 194.429 317.468 C 193.233 319.293, 193.047 320.642, 193.716 322.647 C 195.680 328.541, 201.207 328.233, 201.810 322.195 C 202.464 315.647, 197.645 312.560, 194.429 317.468 M 263.736 315.598 C 262.650 316.684, 264.138 318.884, 265.583 318.330 C 266.362 318.031, 267 318.326, 267 318.985 C 267 319.645, 267.900 321.329, 269 322.727 C 271.502 325.908, 271.508 325.351, 269.036 319.583 C 267.255 315.429, 265.342 313.991, 263.736 315.598 M 479.314 317.750 C 478.972 318.712, 478.579 319.725, 478.441 320 C 478.304 320.275, 479.723 320.500, 481.595 320.500 C 485.351 320.500, 485.925 319.423, 483.250 317.392 C 480.891 315.601, 480.052 315.677, 479.314 317.750 M 424 320.672 C 389.734 327.867, 354.404 336.730, 359.192 336.930 C 362.823 337.081, 433.137 320.618, 435.983 318.950 C 437.992 317.772, 437.410 317.856, 424 320.672 M 473.750 320.080 C 472.788 320.641, 472 322.168, 472 323.474 L 472 325.849 474.452 323.674 C 475.801 322.478, 476.473 321.349, 475.946 321.165 C 475.419 320.980, 475.242 320.418, 475.553 319.915 C 476.260 318.770, 475.950 318.799, 473.750 320.080 M 284.462 324.877 C 283.721 327.455, 282.604 328.581, 279.596 329.780 C 275.821 331.285, 275.630 331.261, 273.846 329.058 C 272.831 327.804, 272 327.032, 272 327.342 C 272 328.676, 274.392 333, 275.129 333 C 275.574 333, 275.661 333.720, 275.323 334.600 C 274.982 335.491, 275.862 335.047, 277.309 333.600 C 282.736 328.173, 291.189 331.995, 294.569 341.404 C 295.157 343.040, 296.169 344.556, 296.819 344.773 C 298.824 345.441, 298.135 343.168, 295.033 338.887 C 292.425 335.287, 292.244 334.613, 293.533 333.324 C 295.507 331.350, 295.380 330.745, 293.139 331.456 C 290.474 332.302, 286.965 329.065, 286.132 324.991 L 285.424 321.530 284.462 324.877 M 489.921 332.751 C 490.399 336.202, 490.468 336.272, 490.798 333.628 C 490.995 332.049, 490.762 330.362, 490.279 329.879 C 489.776 329.376, 489.623 330.601, 489.921 332.751 M 318.252 333.500 C 318.263 335.700, 318.468 336.482, 318.707 335.238 C 318.946 333.994, 318.937 332.194, 318.687 331.238 C 318.437 330.282, 318.241 331.300, 318.252 333.500 M 24.500 332 C 24.160 332.550, 24.359 333, 24.941 333 C 25.523 333, 26 332.550, 26 332 C 26 331.450, 25.802 331, 25.559 331 C 25.316 331, 24.840 331.450, 24.500 332 M 134 342.300 L 121.500 348.500 103.500 348.389 C 84.211 348.270, 55.195 345.859, 43.052 343.366 C 38.956 342.525, 33.585 340.811, 31.117 339.557 L 26.630 337.276 22.065 339.203 C 19.554 340.262, 16.518 341.610, 15.317 342.197 C 14.117 342.785, 12.317 342.957, 11.317 342.579 C 9.586 341.925, 9.583 341.976, 11.250 343.660 C 12.922 345.350, 13.298 345.324, 19.782 343.076 C 26.113 340.880, 26.766 340.827, 29.577 342.281 C 37.843 346.556, 56.417 349.073, 101 351.962 C 123.022 353.389, 134.419 353.708, 142 353.111 C 147.775 352.657, 151.278 352.221, 149.785 352.142 C 146.036 351.946, 144.223 348.516, 146.524 345.973 C 147.450 344.950, 149.511 343.827, 151.104 343.477 C 152.697 343.127, 154 342.467, 154 342.009 C 154 341.052, 148.184 335.975, 147.173 336.050 C 146.803 336.078, 140.875 338.890, 134 342.300 M 476 338.378 C 476 338.585, 476.788 339.373, 477.750 340.128 C 479.336 341.371, 479.371 341.336, 478.128 339.750 C 476.821 338.084, 476 337.555, 476 338.378 M 24.592 343.851 C 23.529 345.570, 37.135 349.139, 53.500 351.433 C 66.333 353.231, 119.001 357.309, 122.270 356.757 C 125.269 356.251, 116.736 355.413, 83.685 352.967 C 68.387 351.834, 53.312 350.453, 50.185 349.897 C 45.318 349.031, 30.979 345.080, 26.591 343.397 C 25.827 343.104, 24.928 343.308, 24.592 343.851 M 279 345.383 C 279 345.594, 279.901 346.002, 281.001 346.290 C 282.102 346.578, 282.751 346.405, 282.442 345.907 C 281.904 345.036, 279 344.594, 279 345.383 M 287.500 346 C 287.160 346.550, 287.332 347, 287.882 347 C 288.432 347, 289.160 346.550, 289.500 346 C 289.840 345.450, 289.668 345, 289.118 345 C 288.568 345, 287.840 345.450, 287.500 346 M 294.559 351.813 C 293.935 353.779, 286.978 359, 284.982 359 C 284.398 359, 282.194 358.119, 280.084 357.043 C 276.473 355.201, 275 355.237, 275 357.167 C 275 357.625, 275.477 358, 276.059 358 C 276.641 358, 276.794 357.438, 276.399 356.750 C 275.981 356.024, 276.061 355.849, 276.590 356.333 C 277.090 356.792, 277.500 357.646, 277.500 358.233 C 277.500 359.984, 285.060 362.195, 286.620 360.900 C 288.218 359.574, 295.187 357.889, 294.504 358.994 C 294.239 359.422, 294.692 360.329, 295.511 361.009 C 296.330 361.689, 297 361.910, 297 361.500 C 297 361.090, 297.788 361.359, 298.750 362.097 C 299.712 362.835, 299.375 362.104, 298 360.472 C 296.625 358.840, 294.941 357.146, 294.257 356.707 C 293.292 356.087, 293.379 355.352, 294.642 353.423 C 295.538 352.056, 296.026 350.693, 295.727 350.393 C 295.427 350.094, 294.902 350.733, 294.559 351.813 M 317.138 355.667 C 315.784 362.407, 315.740 364.047, 316.970 361.947 C 317.993 360.199, 319.527 350, 318.767 350 C 318.497 350, 317.764 352.550, 317.138 355.667 M 64.966 363.021 C 63.962 363.641, 64.313 364.040, 66.302 364.540 C 68.703 365.142, 74.802 364.379, 73.868 363.593 C 72.832 362.720, 66.148 362.291, 64.966 363.021 M 253 363.122 C 253 364.606, 256.295 373.038, 256.712 372.621 C 257.317 372.016, 255.077 364.845, 253.879 363.550 C 253.396 363.028, 253 362.835, 253 363.122 M 310.375 373.550 C 309.412 375.021, 308.110 375.872, 307.300 375.562 C 306.527 375.265, 306.171 375.467, 306.507 376.011 C 307.539 377.681, 308.772 377.129, 311 374 C 312.175 372.350, 312.891 371, 312.591 371 C 312.291 371, 311.294 372.148, 310.375 373.550 M 264.251 382.250 C 266.940 384.863, 269.664 387, 270.306 387 C 270.947 387, 270.023 385.988, 268.253 384.750 C 266.483 383.512, 265.027 381.863, 265.017 381.083 C 265.008 380.304, 264.696 379.971, 264.324 380.342 C 263.952 380.714, 262.684 380.227, 261.505 379.259 C 260.326 378.292, 261.562 379.637, 264.251 382.250 M 274.813 388.683 C 275.534 388.972, 276.397 388.936, 276.729 388.604 C 277.061 388.272, 276.471 388.036, 275.417 388.079 C 274.252 388.127, 274.015 388.364, 274.813 388.683 M 280.264 389.718 C 281.784 389.947, 284.034 389.941, 285.264 389.704 C 286.494 389.467, 285.250 389.279, 282.500 389.286 C 279.750 389.294, 278.744 389.488, 280.264 389.718" stroke="none" fill="black" fill-rule="evenodd"/>
</svg>