<svg xmlns="http://www.w3.org/2000/svg" viewBox="0 0 512 512" xml:space="preserve" width="256" height="256"><g stroke-width="0"/><g stroke-linecap="round" stroke-linejoin="round"/><path d="M0 57.332h512v397.336H0z"/><circle style="fill:#e21b1b" cx="44.192" cy="89.38" r="8.928"/><g style="opacity:.7"><circle style="fill:#fff" cx="70.968" cy="89.38" r="8.928"/></g><circle style="fill:#666" cx="97.736" cy="89.38" r="8.928"/><path style="fill:#666" d="M443.52 105.06H155.96l19.12-31.344h287.576z"/><path style="fill:#fff" d="m195.2 82.396 1.856 7.128c.408 1.56.8 3.008 1.048 4.456h.096c.312-1.416.8-2.92 1.24-4.424l2.296-7.16h2.144l2.168 7.008c.52 1.672.928 3.16 1.248 4.576h.088q.42-2.302 1.08-4.544l2.008-7.04h2.52l-4.52 14.016h-2.312l-2.144-6.688c-.488-1.6-.896-2.952-1.248-4.616h-.056a41 41 0 0 1-1.28 4.64l-2.264 6.664h-2.312l-4.224-14.016zm21.656 0 1.856 7.128c.408 1.56.8 3.008 1.048 4.456h.088c.32-1.416.8-2.92 1.248-4.424l2.28-7.16h2.144l2.176 7.008c.52 1.672.928 3.16 1.24 4.576h.096a40 40 0 0 1 1.08-4.544l2.008-7.04h2.52l-4.52 14.016h-2.328l-2.144-6.688a44 44 0 0 1-1.24-4.616h-.064a39 39 0 0 1-1.272 4.64l-2.264 6.664h-2.328l-4.232-14.016zm21.632 0 1.856 7.128c.408 1.56.8 3.008 1.048 4.456h.088c.32-1.416.8-2.92 1.248-4.424l2.28-7.16h2.144l2.176 7.008c.52 1.672.928 3.16 1.24 4.576h.096a40 40 0 0 1 1.08-4.544l2.008-7.04h2.52l-4.52 14.016h-2.328l-2.152-6.688a44 44 0 0 1-1.24-4.616h-.064a39 39 0 0 1-1.272 4.64l-2.264 6.664h-2.328l-4.232-14.016z"/><path style="fill:#666" d="M0 423.58h82.856l31.088 31.08H0zm512 0h-82.856l-31.088 31.08H512z"/><g style="opacity:.2"><path style="fill:#fff" d="M95.2 162.18h29.232v29.232H95.2z"/></g><g style="opacity:.2"><path style="fill:#fff" d="M153.68 162.18h29.232v29.232H153.68z"/></g><g style="opacity:.2"><path style="fill:#fff" d="M270.616 162.18h29.232v29.232h-29.232z"/></g><g style="opacity:.2"><path style="fill:#fff" d="M329.12 162.18h29.232v29.232H329.12z"/></g><g style="opacity:.2"><path style="fill:#fff" d="M446.032 162.18h29.232v29.232h-29.232z"/></g><g style="opacity:.2"><path style="fill:#fff" d="M36.728 220.652H65.96v29.232H36.728z"/></g><g style="opacity:.2"><path style="fill:#fff" d="M95.2 220.652h29.232v29.232H95.2z"/></g><g style="opacity:.2"><path style="fill:#fff" d="M212.144 220.652h29.232v29.232h-29.232z"/></g><g style="opacity:.2"><path style="fill:#fff" d="M329.12 220.652h29.232v29.232H329.12z"/></g><g style="opacity:.2"><path style="fill:#fff" d="M387.6 220.652h29.232v29.232H387.6z"/></g><g style="opacity:.2"><path style="fill:#fff" d="M446.032 220.652h29.232v29.232h-29.232z"/></g><g style="opacity:.2"><path style="fill:#fff" d="M36.728 279.116H65.96v29.232H36.728z"/></g><g style="opacity:.2"><path style="fill:#fff" d="M153.68 279.116h29.232v29.232H153.68z"/></g><g style="opacity:.2"><path style="fill:#fff" d="M212.144 279.116h29.232v29.232h-29.232z"/></g><g style="opacity:.2"><path style="fill:#fff" d="M270.616 279.116h29.232v29.232h-29.232z"/></g><g style="opacity:.2"><path style="fill:#fff" d="M329.088 279.116h29.24v29.232h-29.24"/></g><g style="opacity:.2"><path style="fill:#fff" d="M387.6 279.116h29.232v29.232H387.6z"/></g><g style="opacity:.2"><path style="fill:#fff" d="M446.032 279.116h29.232v29.232h-29.232z"/></g><g style="opacity:.2"><path style="fill:#fff" d="M36.728 337.596H65.96v29.232H36.728z"/></g><g style="opacity:.2"><path style="fill:#fff" d="M95.2 337.596h29.232v29.232H95.2z"/></g><g style="opacity:.2"><path style="fill:#fff" d="M212.144 337.596h29.232v29.232h-29.232z"/></g><g style="opacity:.2"><path style="fill:#fff" d="M270.616 337.596h29.232v29.232h-29.232z"/></g><g style="opacity:.2"><path style="fill:#fff" d="M329.12 337.596h29.232v29.232H329.12z"/></g><g style="opacity:.2"><path style="fill:#fff" d="M446.032 337.596h29.232v29.232h-29.232z"/></g><path style="fill:#fff" d="m81.4 259.724 119.288-55.416v26.344l-90.216 39.512v.496l90.216 39.512v26.344L81.4 281.1zm137.704 86.736 53.184-180.184h25.104L244.208 346.46zm212.008-64.624-119.288 54.68v-26.344L404 270.66v-.496l-92.176-39.52v-26.328l119.288 54.68z"/></svg>