<?xml version="1.0" standalone="no"?>
<!DOCTYPE svg PUBLIC "-//W3C//DTD SVG 20010904//EN"
 "http://www.w3.org/TR/2001/REC-SVG-20010904/DTD/svg10.dtd">
<svg version="1.0" xmlns="http://www.w3.org/2000/svg"
 width="700.000000pt" height="700.000000pt" viewBox="0 0 700.000000 700.000000"
 preserveAspectRatio="xMidYMid meet">
<metadata>
Created by potrace 1.14, written by Peter Selinger 2001-2017
</metadata>
<g transform="translate(0.000000,700.000000) scale(0.100000,-0.100000)"
fill="#000000" stroke="none">
<path d="M0 3500 l0 -2720 3500 0 3500 0 0 2720 0 2720 -3500 0 -3500 0 0
-2720z m1031 2377 c18 -12 39 -34 46 -47 40 -78 -18 -170 -107 -170 -70 0
-128 68 -117 137 7 41 21 59 62 85 40 24 75 23 116 -5z m1653 -51 c9 -30 16
-59 16 -65 0 -30 18 -4 36 51 29 91 48 89 76 -6 l22 -76 20 72 c15 51 26 74
39 76 23 5 22 -10 -11 -108 -22 -66 -33 -86 -49 -88 -17 -3 -23 7 -37 62 -10
36 -21 64 -25 61 -4 -2 -16 -31 -26 -65 -15 -50 -22 -60 -38 -58 -14 2 -25 22
-42 75 -38 120 -38 123 -16 123 15 0 23 -13 35 -54z m303 -23 l19 -77 23 77
c29 98 47 100 75 9 17 -55 36 -82 36 -51 0 6 7 35 16 65 12 41 20 54 35 54 24
0 25 2 -12 -107 -24 -72 -35 -93 -49 -93 -13 0 -23 14 -35 53 -9 28 -19 59
-22 67 -3 9 -15 -13 -27 -50 -17 -48 -28 -66 -42 -68 -17 -2 -24 10 -47 87
-32 107 -32 111 -8 111 15 0 22 -15 38 -77z m290 17 c22 -89 24 -89 47 -15 30
98 48 98 79 -1 l24 -76 18 72 c16 65 35 93 52 76 4 -3 -6 -49 -22 -101 -25
-84 -31 -96 -49 -93 -16 2 -25 18 -41 70 l-21 68 -23 -70 c-17 -54 -26 -70
-41 -70 -15 0 -25 18 -48 93 -30 96 -31 110 -4 105 10 -2 21 -23 29 -58z m783
-1103 c0 -7 -20 -81 -44 -163 -24 -82 -179 -606 -344 -1164 -165 -558 -308
-1041 -317 -1072 l-16 -58 -170 0 c-116 0 -169 3 -169 11 0 6 29 108 64 227
36 120 94 318 131 442 36 124 164 558 285 965 120 407 223 759 230 783 l11 42
169 0 c134 0 170 -3 170 -13z m-1320 -695 l0 -178 -615 -269 c-338 -148 -612
-272 -607 -276 4 -3 277 -124 607 -268 330 -144 603 -266 608 -270 4 -4 6 -86
5 -183 l-3 -175 -810 377 -810 376 -3 146 -3 145 303 141 c933 435 1314 611
1321 612 4 0 7 -80 7 -178z m1782 67 c134 -61 356 -163 493 -226 138 -63 318
-146 400 -183 83 -38 222 -102 310 -142 l160 -74 3 -160 2 -160 -242 -111
c-439 -202 -1363 -625 -1375 -630 -10 -4 -13 35 -13 174 l0 180 28 12 c15 7
295 128 622 268 327 140 599 258 603 262 5 5 -274 129 -620 277 l-628 269 -3
178 c-1 110 1 177 7 177 6 0 119 -50 253 -111z"/>
</g>
</svg>
